<?xml version="1.0" standalone="no"?>
<!DOCTYPE svg PUBLIC "-//W3C//DTD SVG 20010904//EN"
 "http://www.w3.org/TR/2001/REC-SVG-20010904/DTD/svg10.dtd">
<svg version="1.0" xmlns="http://www.w3.org/2000/svg"
 width="704.000000pt" height="704.000000pt" viewBox="0 0 704.000000 704.000000"
 preserveAspectRatio="xMidYMid meet">
<metadata>
Created by potrace 1.14, written by Peter Selinger 2001-2017
</metadata>
<g transform="translate(0.000000,704.000000) scale(0.100000,-0.100000)"
fill="#000000" stroke="none">
<path d="M3339 6716 c-2 -2 -29 -6 -59 -10 -30 -3 -68 -8 -85 -11 -62 -10 -80
-14 -80 -15 0 -1 -9 -3 -20 -4 -55 -7 -201 -51 -295 -88 -124 -49 -229 -103
-324 -167 -38 -25 -77 -50 -85 -56 -9 -5 -18 -12 -21 -15 -3 -3 -32 -27 -65
-55 -180 -150 -343 -357 -461 -585 -22 -41 -42 -76 -46 -78 -5 -2 -8 -8 -8
-13 0 -5 -16 -33 -35 -63 -19 -30 -35 -59 -35 -65 0 -5 -3 -11 -7 -13 -5 -1
-15 -15 -23 -31 -12 -22 -244 -416 -280 -477 -33 -55 -96 -160 -110 -185 -10
-16 -47 -81 -84 -143 -36 -62 -66 -117 -66 -122 0 -4 -4 -10 -9 -12 -4 -1 -19
-23 -33 -48 -13 -25 -36 -65 -51 -90 -72 -118 -187 -314 -187 -317 0 -3 -160
-276 -190 -323 -8 -13 -70 -120 -111 -190 -8 -14 -18 -28 -22 -31 -5 -3 -9
-10 -9 -15 -1 -5 -12 -26 -25 -47 -13 -20 -31 -53 -40 -72 -9 -19 -20 -35 -25
-35 -4 0 -8 -4 -8 -10 0 -5 -18 -39 -40 -75 -22 -36 -40 -67 -40 -70 0 -3 -16
-29 -35 -59 -19 -30 -35 -57 -35 -59 0 -3 -17 -34 -39 -69 -38 -63 -121 -223
-121 -233 0 -3 -7 -21 -15 -41 -17 -41 -53 -156 -59 -188 -2 -11 -9 -39 -14
-61 -6 -22 -13 -58 -16 -80 -2 -22 -5 -40 -6 -40 -7 0 -14 -126 -14 -260 0
-154 5 -218 25 -315 5 -25 12 -58 15 -75 3 -16 8 -37 11 -45 3 -8 8 -23 10
-34 13 -66 83 -246 136 -346 47 -89 126 -214 138 -218 5 -2 9 -10 9 -17 0 -7
3 -15 8 -17 4 -1 32 -32 62 -68 234 -277 533 -465 888 -561 42 -11 88 -22 102
-25 14 -2 36 -7 50 -10 28 -7 49 -10 100 -18 19 -3 58 -8 85 -12 67 -11 3634
-11 3710 -1 125 17 142 20 230 42 33 9 67 17 76 19 162 41 495 211 597 306 11
11 24 20 26 20 19 0 202 186 276 280 66 84 72 92 89 121 8 13 33 53 55 89 58
96 118 231 155 350 18 58 36 112 38 120 3 8 7 24 9 35 1 11 5 34 9 50 3 17 8
48 11 70 2 22 7 47 10 55 10 26 12 342 3 410 -5 36 -11 79 -13 95 -8 58 -37
171 -67 259 -40 117 -140 324 -176 364 -7 7 -13 20 -13 28 0 8 -4 14 -10 14
-5 0 -10 4 -10 9 0 5 -50 94 -111 198 -124 210 -140 237 -170 291 -12 20 -25
42 -29 47 -4 6 -17 26 -28 45 -71 125 -107 185 -114 188 -4 2 -8 8 -8 13 0 6
-47 89 -105 185 -58 96 -105 178 -105 181 0 2 -9 17 -20 32 -10 15 -35 59 -55
96 -19 37 -39 73 -44 79 -4 6 -19 31 -32 56 -13 25 -28 49 -32 55 -4 5 -32 48
-61 95 -50 80 -67 109 -132 228 -15 26 -31 53 -37 60 -6 7 -20 32 -32 55 -20
39 -57 102 -215 367 -79 131 -130 221 -180 315 -136 253 -310 479 -482 626
-34 30 -68 59 -74 64 -6 6 -42 31 -80 55 -38 25 -71 47 -74 50 -8 8 -44 27
-142 76 -98 49 -240 104 -340 129 -85 23 -81 22 -238 50 -37 7 -365 16 -371
11z m266 -977 c79 -15 90 -17 93 -20 1 -1 6 -2 11 -3 5 0 13 -4 17 -8 4 -5 15
-8 24 -8 25 0 166 -75 225 -119 59 -45 136 -122 169 -171 41 -61 166 -271 166
-280 0 -5 3 -10 8 -12 4 -1 16 -21 27 -43 27 -54 86 -157 101 -175 6 -8 32
-51 56 -95 62 -111 72 -129 79 -135 4 -3 17 -25 29 -50 13 -25 36 -64 52 -88
16 -23 34 -56 40 -72 5 -17 14 -30 19 -30 5 0 9 -4 9 -10 0 -5 18 -39 40 -75
22 -36 40 -69 40 -74 0 -5 4 -11 8 -13 5 -1 32 -46 62 -98 82 -147 85 -152
120 -210 18 -30 40 -63 48 -72 8 -10 12 -18 8 -18 -3 0 10 -22 29 -50 19 -27
35 -52 35 -54 0 -3 45 -82 100 -176 55 -95 100 -174 100 -176 0 -2 16 -28 35
-58 19 -30 35 -57 35 -60 0 -3 15 -29 33 -59 17 -29 37 -61 44 -72 7 -11 29
-49 49 -85 21 -36 86 -147 146 -248 59 -101 108 -188 108 -193 0 -5 5 -9 10
-9 6 0 10 -4 10 -9 0 -4 22 -46 48 -92 42 -73 63 -118 98 -214 4 -11 9 -27 10
-35 1 -8 7 -37 12 -64 23 -112 -8 -311 -68 -440 -121 -261 -338 -422 -636
-472 -22 -4 -274 -8 -562 -9 -287 -1 -525 -5 -529 -8 -3 -4 -10 -4 -16 0 -14
9 -377 10 -377 1 0 -4 -10 -4 -22 0 -18 6 -396 7 -553 1 -11 0 -41 1 -68 3
-26 2 -47 1 -47 -2 0 -7 -106 -4 -118 4 -6 3 -13 3 -15 -1 -4 -7 -62 -9 -77
-3 -3 1 -9 1 -15 0 -13 -3 -87 -3 -100 0 -5 1 -12 1 -15 0 -12 -4 -127 -3
-136 2 -5 3 -18 2 -29 -2 -11 -4 -32 -4 -47 1 -16 4 -28 4 -28 -1 0 -5 -13 -5
-30 0 -17 5 -30 5 -30 0 0 -5 -13 -5 -30 0 -19 5 -30 5 -30 -1 0 -6 -5 -7 -10
-4 -10 6 -83 9 -105 5 -5 -1 -14 -1 -20 0 -5 1 -125 3 -265 5 -140 2 -266 6
-280 9 -14 3 -41 9 -60 12 -19 3 -55 13 -80 21 -25 8 -49 16 -55 17 -24 4
-145 71 -195 108 -173 128 -293 330 -317 536 -11 94 -6 224 12 298 15 61 67
183 95 224 14 21 254 432 263 450 4 8 20 35 35 61 15 25 77 129 137 232 61
103 117 200 126 215 9 15 25 43 36 62 11 19 57 97 102 173 44 76 81 142 81
147 0 6 4 10 8 10 4 0 19 22 33 50 13 27 26 50 29 50 5 0 72 -110 150 -246 14
-24 133 -227 265 -451 132 -223 242 -411 244 -417 2 -6 9 -18 16 -26 7 -8 24
-35 37 -60 33 -59 43 -77 197 -339 72 -123 131 -227 131 -232 0 -5 5 -9 10 -9
6 0 10 -7 10 -15 0 -8 11 -22 25 -31 22 -15 81 -16 567 -15 318 0 545 4 551
10 8 8 -9 43 -90 179 -11 21 -28 48 -36 62 -7 14 -38 66 -67 115 -29 50 -58
99 -64 110 -24 42 -159 271 -174 295 -9 14 -15 28 -14 33 1 4 -2 7 -8 7 -5 0
-10 4 -10 9 0 4 -124 219 -276 477 -152 258 -286 487 -299 510 -12 22 -29 51
-36 65 -8 13 -16 26 -19 29 -5 5 -11 15 -55 94 -35 63 -163 280 -172 291 -4 6
-21 35 -37 65 -16 30 -34 62 -41 70 -21 27 -58 123 -81 210 -17 68 -21 108
-19 195 1 61 5 119 8 130 3 11 10 42 16 68 14 62 58 158 106 233 36 56 158
185 200 211 142 88 198 113 318 141 87 20 226 25 302 11z"/>
</g>
</svg>
