<svg width="80" height="75" viewBox="0 0 80 75" fill="none" xmlns="http://www.w3.org/2000/svg">
<g opacity="0.5">
<g filter="url(#filter0_b_1_6149)">
<path d="M61.0697 37.6494C61.0697 50.4072 50.569 60.7488 37.6149 60.7488C24.6609 60.7488 14.1602 50.4072 14.1602 37.6494C14.1602 24.894 24.6609 14.55 37.6149 14.55C50.569 14.55 61.0697 24.894 61.0697 37.6494Z" fill="url(#paint0_linear_1_6149)"/>
</g>
<g filter="url(#filter1_f_1_6149)">
<path d="M37.6759 22.6145C29.3471 22.6145 22.5874 29.2732 22.5874 37.4744C22.5874 45.6786 29.3471 52.3343 37.6759 52.3343C46.0199 52.3343 52.7644 45.6786 52.7644 37.4744C52.7644 29.2732 46.0199 22.6145 37.6759 22.6145Z" fill="#268EEC"/>
</g>
</g>
<g filter="url(#filter2_b_1_6149)">
<path d="M70.5565 46.7007C70.5565 59.4585 60.0558 69.8001 47.1017 69.8001C34.1477 69.8001 23.647 59.4585 23.647 46.7007C23.647 33.9452 34.1477 23.6013 47.1017 23.6013C60.0558 23.6013 70.5565 33.9452 70.5565 46.7007Z" fill="#1C1E28" fill-opacity="0.1"/>
<path d="M47.1017 70.3001C60.3247 70.3001 71.0565 59.7418 71.0565 46.7007C71.0565 33.6619 60.3248 23.1013 47.1017 23.1013C33.8787 23.1013 23.147 33.6619 23.147 46.7007C23.147 59.7418 33.8788 70.3001 47.1017 70.3001Z" stroke="url(#paint1_linear_1_6149)" stroke-linecap="round" stroke-linejoin="round"/>
</g>
<g filter="url(#filter3_bd_1_6149)">
<mask id="path-5-inside-1_1_6149" fill="white">
<path d="M56.1552 38.5234L52.3555 50.3503C52.2148 50.8354 51.8161 51.228 51.3235 51.369L39.3616 55.0625C38.5641 55.3189 37.7901 54.5544 38.0481 53.769L41.8009 41.919C41.9416 41.4339 42.3403 41.0643 42.8329 40.9026L54.8417 37.2067C55.6626 36.9526 56.4132 37.7149 56.1552 38.5234Z"/>
</mask>
<path d="M56.1552 38.5234L52.3555 50.3503C52.2148 50.8354 51.8161 51.228 51.3235 51.369L39.3616 55.0625C38.5641 55.3189 37.7901 54.5544 38.0481 53.769L41.8009 41.919C41.9416 41.4339 42.3403 41.0643 42.8329 40.9026L54.8417 37.2067C55.6626 36.9526 56.4132 37.7149 56.1552 38.5234Z" fill="#268EEC"/>
<path d="M52.3555 50.3503L51.9745 50.2279L51.9714 50.2388L52.3555 50.3503ZM51.3235 51.369L51.2135 50.9843L51.2055 50.9868L51.3235 51.369ZM39.3616 55.0625L39.2436 54.6803L39.2391 54.6817L39.3616 55.0625ZM38.0481 53.769L38.4282 53.8938L38.4294 53.8897L38.0481 53.769ZM41.8009 41.919L42.1823 42.0398L42.185 42.0304L41.8009 41.919ZM42.8329 40.9026L42.7152 40.5202L42.7081 40.5226L42.8329 40.9026ZM54.8417 37.2067L54.9594 37.589L54.96 37.5888L54.8417 37.2067ZM55.7744 38.401L51.9747 50.2279L52.7363 50.4726L56.536 38.6457L55.7744 38.401ZM51.9714 50.2388C51.8698 50.5889 51.5767 50.8805 51.2135 50.9844L51.4335 51.7535C52.0554 51.5756 52.5598 51.0818 52.7397 50.4617L51.9714 50.2388ZM51.2055 50.9868L39.2436 54.6804L39.4796 55.4447L51.4415 51.7511L51.2055 50.9868ZM39.2391 54.6817C38.7414 54.8418 38.2759 54.3573 38.4281 53.8938L37.6681 53.6441C37.3043 54.7514 38.3869 55.7961 39.484 55.4433L39.2391 54.6817ZM38.4294 53.8897L42.1822 42.0398L41.4195 41.7982L37.6668 53.6482L38.4294 53.8897ZM42.185 42.0304C42.2835 41.6909 42.5709 41.4096 42.9576 41.2827L42.7081 40.5226C42.1097 40.719 41.5997 41.1769 41.4167 41.8075L42.185 42.0304ZM42.9505 41.2849L54.9594 37.589L54.7241 36.8244L42.7152 40.5203L42.9505 41.2849ZM54.96 37.5888C55.4729 37.4301 55.9336 37.9021 55.7741 38.4018L56.5362 38.645C56.8928 37.5277 55.8524 36.4752 54.7234 36.8246L54.96 37.5888Z" fill="#268EEC" mask="url(#path-5-inside-1_1_6149)"/>
</g>
<defs>
<filter id="filter0_b_1_6149" x="1.16016" y="1.55005" width="72.9097" height="72.1987" filterUnits="userSpaceOnUse" color-interpolation-filters="sRGB">
<feFlood flood-opacity="0" result="BackgroundImageFix"/>
<feGaussianBlur in="BackgroundImageFix" stdDeviation="6.5"/>
<feComposite in2="SourceAlpha" operator="in" result="effect1_backgroundBlur_1_6149"/>
<feBlend mode="normal" in="SourceGraphic" in2="effect1_backgroundBlur_1_6149" result="shape"/>
</filter>
<filter id="filter1_f_1_6149" x="0.587402" y="0.614502" width="74.1772" height="73.7197" filterUnits="userSpaceOnUse" color-interpolation-filters="sRGB">
<feFlood flood-opacity="0" result="BackgroundImageFix"/>
<feBlend mode="normal" in="SourceGraphic" in2="BackgroundImageFix" result="shape"/>
<feGaussianBlur stdDeviation="11" result="effect1_foregroundBlur_1_6149"/>
</filter>
<filter id="filter2_b_1_6149" x="7.64697" y="7.60132" width="78.9097" height="78.1987" filterUnits="userSpaceOnUse" color-interpolation-filters="sRGB">
<feFlood flood-opacity="0" result="BackgroundImageFix"/>
<feGaussianBlur in="BackgroundImageFix" stdDeviation="7.5"/>
<feComposite in2="SourceAlpha" operator="in" result="effect1_backgroundBlur_1_6149"/>
<feBlend mode="normal" in="SourceGraphic" in2="effect1_backgroundBlur_1_6149" result="shape"/>
</filter>
<filter id="filter3_bd_1_6149" x="22.9976" y="22.157" width="48.2095" height="47.9561" filterUnits="userSpaceOnUse" color-interpolation-filters="sRGB">
<feFlood flood-opacity="0" result="BackgroundImageFix"/>
<feGaussianBlur in="BackgroundImageFix" stdDeviation="7.5"/>
<feComposite in2="SourceAlpha" operator="in" result="effect1_backgroundBlur_1_6149"/>
<feColorMatrix in="SourceAlpha" type="matrix" values="0 0 0 0 0 0 0 0 0 0 0 0 0 0 0 0 0 0 127 0" result="hardAlpha"/>
<feOffset dx="5" dy="5"/>
<feGaussianBlur stdDeviation="5"/>
<feColorMatrix type="matrix" values="0 0 0 0 0 0 0 0 0 0 0 0 0 0 0 0 0 0 0.15 0"/>
<feBlend mode="normal" in2="effect1_backgroundBlur_1_6149" result="effect2_dropShadow_1_6149"/>
<feBlend mode="normal" in="SourceGraphic" in2="effect2_dropShadow_1_6149" result="shape"/>
</filter>
<linearGradient id="paint0_linear_1_6149" x1="37.9202" y1="45.75" x2="16.9167" y2="14.2523" gradientUnits="userSpaceOnUse">
<stop stop-color="#4F5058"/>
<stop offset="1" stop-color="#4F5058" stop-opacity="0"/>
</linearGradient>
<linearGradient id="paint1_linear_1_6149" x1="23.647" y1="23.6013" x2="71.5689" y2="24.6765" gradientUnits="userSpaceOnUse">
<stop stop-color="#5484FF"/>
<stop offset="1" stop-color="#0CC3CF"/>
</linearGradient>
</defs>
</svg>
