<svg width="148" height="20" viewBox="0 0 148 20" fill="none" xmlns="http://www.w3.org/2000/svg">
<path d="M7.63028 3.40695C8.1908 2.24536 8.99118 1.29825 10.1563 0.681307C10.8 0.339095 11.4854 0.13425 12.2123 0.0450816C12.6064 -0.00311709 13.0054 -0.0175738 13.3921 0.0258051C14.4495 0.141483 15.4188 0.500561 16.2779 1.1392C17.0513 1.71758 17.5923 2.47189 18.0475 3.2985C18.0892 3.37321 18.1675 3.52503 18.1675 3.52503L15.5338 5.04812C15.5338 5.04812 15.2425 4.583 15.1103 4.342C14.5547 3.3467 13.3309 2.78759 12.134 3.14426C11.079 3.45996 10.3766 4.35887 10.2909 5.3831C10.2444 5.93015 10.3864 6.43142 10.6654 6.90618C12.0875 9.33298 13.5096 11.7598 14.9317 14.1842C15.0443 14.3746 15.0443 14.377 14.8215 14.377C13.7617 14.377 12.6994 14.3746 11.6396 14.3794C11.5245 14.3794 11.4658 14.3457 11.4095 14.2493C10.9004 13.372 10.3864 12.4948 9.87234 11.62C9.2849 10.6199 8.69747 9.62218 8.11003 8.62446C8.06597 8.54493 8.02191 8.463 7.9754 8.38347C7.21663 7.07246 7.01592 5.68434 7.38307 4.21669C7.44426 3.97328 7.52503 3.7347 7.59601 3.49371L7.59357 3.49611C7.63028 3.47683 7.62783 3.44069 7.63028 3.40695Z" fill="url(#paint0_linear_19_4954)"/>
<path d="M7.62988 3.39241C7.62698 3.43226 7.62698 3.47495 7.58059 3.49487C7.57769 3.45218 7.59509 3.41803 7.62988 3.39241Z" fill="#111111"/>
<path d="M2.09576 15.438C2.37969 16.8912 3.12133 18.06 4.32558 18.9396C5.23611 19.6048 6.48198 19.9373 7.61035 19.9976C8.19044 19.9952 8.5576 19.9928 9.13769 19.9904C9.20623 19.9904 9.27721 19.9855 9.34574 19.9831C9.50974 19.9831 9.67128 19.9831 9.83527 19.9831C10.0458 19.9831 10.2563 19.9831 10.4643 19.9831C10.6626 19.9831 10.8608 19.9831 11.0591 19.9831C11.0909 19.9879 11.1252 19.9928 11.157 19.9976C11.228 19.9976 11.3014 19.9976 11.3724 19.9976C11.3822 19.9976 11.3944 19.9976 11.4042 19.9976C11.4532 19.9928 11.4997 19.9904 11.5486 19.9855C11.8522 19.9855 12.1557 19.9855 12.4592 19.9855C12.912 19.9855 13.3673 19.9855 13.8201 19.9855C14.0281 19.9928 14.2386 19.9952 14.4467 20C14.7135 19.9976 14.9803 19.9904 15.2471 19.9904C16.2751 19.9904 17.3031 19.9928 18.3311 19.9952C18.7252 19.9687 19.1168 19.9181 19.5011 19.8193C22.2841 19.1035 24.0072 16.4718 23.6744 13.739C23.5936 13.0714 23.3831 12.4256 23.0429 11.8351C22.5852 11.0398 22.1177 10.2518 21.6526 9.46134C21.283 8.83475 20.911 8.20817 20.5414 7.584C20.326 7.17431 20.0861 6.77667 19.8364 6.38626C19.6455 6.0561 19.4521 5.72352 19.2612 5.39336C19.1829 5.42469 19.107 5.45843 19.0311 5.49699C19.1046 5.45843 19.1829 5.42469 19.2612 5.39336C19.1731 5.24395 19.0874 5.09212 18.9993 4.9427C18.8916 4.75955 18.7815 4.57639 18.6738 4.39565C18.5049 4.10887 18.3336 3.81967 18.1647 3.53289C18.1108 3.55217 18.0521 3.56422 18.0031 3.59314C17.215 4.03898 16.4268 4.48481 15.6411 4.93306C15.5922 4.96198 15.5408 4.99331 15.531 5.05597C15.6779 5.34034 15.8394 5.6199 16.0181 5.88499C16.0695 5.83438 16.1233 5.78859 16.1796 5.75003C16.1209 5.791 16.067 5.83438 16.0181 5.88499C16.0988 6.06332 16.2041 6.22961 16.3093 6.39349C16.4073 6.56459 16.4905 6.74775 16.6178 6.90198C16.7793 7.23937 16.9849 7.55267 17.1783 7.87319C17.2199 7.8756 17.259 7.86837 17.2982 7.85632C17.2615 7.86837 17.2223 7.8756 17.1783 7.87319C17.4108 8.29252 17.6507 8.70944 17.9077 9.11431C18.2797 9.75776 18.6518 10.4036 19.0263 11.0447C19.4448 11.7628 19.8682 12.4762 20.2868 13.1943C20.5536 13.6498 20.6956 14.1463 20.6319 14.6692C20.4949 15.8043 19.7214 16.696 18.5759 16.9297C18.4682 16.9514 18.358 16.9562 18.2479 16.9707C18.1843 17.0117 18.1108 16.9924 18.0423 16.9924C16.7034 16.9948 15.3621 16.9948 14.0232 16.9948C13.9547 16.9948 13.8837 16.9996 13.8152 17.002C13.6634 16.9803 13.5068 17.0189 13.3575 16.9803C13.3256 16.9803 13.2963 16.9803 13.2645 16.9803C13.0858 17.0093 12.9046 17.0069 12.726 16.9828C12.6354 16.9852 12.5473 16.99 12.4567 16.9924C12.4347 16.9876 12.4127 16.9852 12.3906 16.9803C12.1116 17.0213 11.8277 16.9828 11.5486 17.0044C11.3846 17.0044 11.2207 17.0044 11.0567 17.002C10.8584 17.002 10.6601 17.002 10.4619 17.002C10.2514 17.002 10.0433 17.002 9.83283 16.9996C9.66883 16.9996 9.50729 16.9996 9.34329 16.9996C8.78523 16.9972 8.22471 16.9924 7.66665 16.9876C7.60301 16.9876 7.53937 17.0044 7.47818 16.9707C6.27882 16.8791 5.32668 16.0549 5.11618 14.8982C5.01093 14.3198 5.0917 13.751 5.39277 13.2329C6.28616 11.7026 7.18446 10.1771 8.0803 8.64678C8.0852 8.63714 8.09499 8.62991 8.10233 8.62268C8.05827 8.54315 8.01422 8.46121 7.96771 8.38168C7.20893 7.07068 7.00822 5.68255 7.37537 4.2149C7.43656 3.9715 7.51734 3.73291 7.58832 3.49192C7.53203 3.5112 7.52223 3.56904 7.49776 3.61242C5.90922 6.30914 4.32069 9.00827 2.73705 11.7074C2.25241 12.534 2.01744 13.4329 2.0003 14.3848C1.99785 14.7343 2.02967 15.0885 2.09576 15.438Z" fill="url(#paint1_linear_19_4954)"/>
<path d="M39.2354 16.18C38.1314 16.18 37.2134 15.976 36.4814 15.568C35.7614 15.16 35.2154 14.59 34.8434 13.858C34.4714 13.126 34.2674 12.274 34.2314 11.302C34.2194 10.81 34.2134 10.282 34.2134 9.71799C34.2134 9.15399 34.2194 8.61399 34.2314 8.09799C34.2674 7.12599 34.4714 6.27399 34.8434 5.54199C35.2154 4.80999 35.7614 4.23999 36.4814 3.83199C37.2134 3.42399 38.1314 3.21999 39.2354 3.21999C40.0634 3.21999 40.7894 3.33399 41.4134 3.56199C42.0374 3.78999 42.5534 4.09599 42.9614 4.47999C43.3814 4.86399 43.6994 5.29599 43.9154 5.77599C44.1314 6.24399 44.2514 6.72999 44.2754 7.23399C44.2874 7.34199 44.2514 7.43199 44.1674 7.50399C44.0954 7.57599 44.0054 7.61199 43.8974 7.61199H42.9074C42.7994 7.61199 42.7034 7.58199 42.6194 7.52199C42.5474 7.46199 42.4934 7.35399 42.4574 7.19799C42.2534 6.26199 41.8694 5.61999 41.3054 5.27199C40.7534 4.92399 40.0574 4.74999 39.2174 4.74999C38.2574 4.74999 37.4954 5.02599 36.9314 5.57799C36.3674 6.11799 36.0614 6.98799 36.0134 8.18799C35.9774 9.17199 35.9774 10.18 36.0134 11.212C36.0614 12.412 36.3674 13.288 36.9314 13.84C37.4954 14.38 38.2574 14.65 39.2174 14.65C40.0574 14.65 40.7534 14.476 41.3054 14.128C41.8694 13.78 42.2534 13.138 42.4574 12.202C42.4934 12.046 42.5474 11.938 42.6194 11.878C42.7034 11.818 42.7994 11.788 42.9074 11.788H43.8974C44.0054 11.788 44.0954 11.824 44.1674 11.896C44.2514 11.968 44.2874 12.058 44.2754 12.166C44.2514 12.67 44.1314 13.162 43.9154 13.642C43.6994 14.11 43.3814 14.536 42.9614 14.92C42.5534 15.304 42.0374 15.61 41.4134 15.838C40.7894 16.066 40.0634 16.18 39.2354 16.18Z" fill="white"/>
<path d="M47.2277 16C47.1077 16 47.0057 15.964 46.9217 15.892C46.8497 15.808 46.8137 15.706 46.8137 15.586V7.07199C46.8137 6.95199 46.8497 6.84999 46.9217 6.76599C47.0057 6.68199 47.1077 6.63999 47.2277 6.63999H48.0557C48.1757 6.63999 48.2777 6.68199 48.3617 6.76599C48.4457 6.84999 48.4877 6.95199 48.4877 7.07199V7.86399C48.7277 7.45599 49.0577 7.14999 49.4777 6.94599C49.8977 6.74199 50.4017 6.63999 50.9897 6.63999H51.7097C51.8297 6.63999 51.9257 6.68199 51.9977 6.76599C52.0697 6.83799 52.1057 6.93399 52.1057 7.05399V7.79199C52.1057 7.91199 52.0697 8.00799 51.9977 8.07999C51.9257 8.15199 51.8297 8.18799 51.7097 8.18799H50.6297C49.9817 8.18799 49.4717 8.37999 49.0997 8.76399C48.7277 9.13599 48.5417 9.64599 48.5417 10.294V15.586C48.5417 15.706 48.4997 15.808 48.4157 15.892C48.3317 15.964 48.2297 16 48.1097 16H47.2277Z" fill="white"/>
<path d="M55.6495 19.42C55.5535 19.42 55.4696 19.384 55.3976 19.312C55.3256 19.24 55.2896 19.156 55.2896 19.06C55.2896 19.012 55.2956 18.964 55.3076 18.916C55.3195 18.868 55.3436 18.808 55.3796 18.736L56.7656 15.442L53.3276 7.32399C53.2676 7.17999 53.2376 7.07799 53.2376 7.01799C53.2376 6.90999 53.2736 6.81999 53.3456 6.74799C53.4176 6.67599 53.5076 6.63999 53.6156 6.63999H54.4976C54.6176 6.63999 54.7136 6.66999 54.7856 6.72999C54.8576 6.78999 54.9056 6.86199 54.9296 6.94599L57.6656 13.498L60.4736 6.94599C60.5096 6.86199 60.5576 6.78999 60.6175 6.72999C60.6896 6.66999 60.7916 6.63999 60.9236 6.63999H61.7696C61.8776 6.63999 61.9676 6.67599 62.0396 6.74799C62.1116 6.81999 62.1476 6.90399 62.1476 6.99999C62.1476 7.05999 62.1175 7.16799 62.0576 7.32399L56.9456 19.114C56.9096 19.198 56.8556 19.27 56.7836 19.33C56.7236 19.39 56.6276 19.42 56.4956 19.42H55.6495Z" fill="white"/>
<path d="M64.7176 19.42C64.5976 19.42 64.4956 19.378 64.4116 19.294C64.3396 19.222 64.3036 19.126 64.3036 19.006V7.05399C64.3036 6.93399 64.3396 6.83799 64.4116 6.76599C64.4956 6.68199 64.5976 6.63999 64.7176 6.63999H65.5456C65.6656 6.63999 65.7616 6.68199 65.8336 6.76599C65.9176 6.83799 65.9596 6.93399 65.9596 7.05399V7.84599C66.2476 7.44999 66.6316 7.11999 67.1116 6.85599C67.5916 6.59199 68.1916 6.45999 68.9116 6.45999C69.5836 6.45999 70.1536 6.57399 70.6216 6.80199C71.1016 7.02999 71.4916 7.34199 71.7916 7.73799C72.1036 8.13399 72.3376 8.58399 72.4936 9.08799C72.6496 9.59199 72.7336 10.132 72.7456 10.708C72.7576 10.9 72.7636 11.104 72.7636 11.32C72.7636 11.536 72.7576 11.74 72.7456 11.932C72.7336 12.496 72.6496 13.036 72.4936 13.552C72.3376 14.056 72.1036 14.506 71.7916 14.902C71.4916 15.286 71.1016 15.598 70.6216 15.838C70.1536 16.066 69.5836 16.18 68.9116 16.18C68.2156 16.18 67.6276 16.054 67.1476 15.802C66.6796 15.538 66.2956 15.214 65.9956 14.83V19.006C65.9956 19.126 65.9596 19.222 65.8876 19.294C65.8156 19.378 65.7136 19.42 65.5816 19.42H64.7176ZM68.5336 14.722C69.1576 14.722 69.6436 14.59 69.9916 14.326C70.3516 14.05 70.6096 13.696 70.7656 13.264C70.9216 12.82 71.0116 12.346 71.0356 11.842C71.0476 11.494 71.0476 11.146 71.0356 10.798C71.0116 10.294 70.9216 9.82599 70.7656 9.39399C70.6096 8.94999 70.3516 8.59599 69.9916 8.33199C69.6436 8.05599 69.1576 7.91799 68.5336 7.91799C67.9456 7.91799 67.4656 8.05599 67.0936 8.33199C66.7336 8.60799 66.4636 8.96199 66.2836 9.39399C66.1156 9.81399 66.0196 10.246 65.9956 10.69C65.9836 10.882 65.9776 11.11 65.9776 11.374C65.9776 11.638 65.9836 11.872 65.9956 12.076C66.0076 12.496 66.1036 12.91 66.2836 13.318C66.4756 13.726 66.7576 14.062 67.1296 14.326C67.5016 14.59 67.9696 14.722 68.5336 14.722Z" fill="white"/>
<path d="M78.9168 16C78.2448 16 77.6988 15.874 77.2788 15.622C76.8588 15.358 76.5528 14.992 76.3608 14.524C76.1688 14.044 76.0728 13.48 76.0728 12.832V8.07999H74.6688C74.5488 8.07999 74.4468 8.04399 74.3628 7.97199C74.2908 7.88799 74.2548 7.78599 74.2548 7.66599V7.05399C74.2548 6.93399 74.2908 6.83799 74.3628 6.76599C74.4468 6.68199 74.5488 6.63999 74.6688 6.63999H76.0728V3.63399C76.0728 3.51399 76.1088 3.41799 76.1808 3.34599C76.2648 3.26199 76.3668 3.21999 76.4868 3.21999H77.3328C77.4528 3.21999 77.5488 3.26199 77.6208 3.34599C77.7048 3.41799 77.7468 3.51399 77.7468 3.63399V6.63999H79.9788C80.0988 6.63999 80.1948 6.68199 80.2668 6.76599C80.3508 6.83799 80.3928 6.93399 80.3928 7.05399V7.66599C80.3928 7.78599 80.3508 7.88799 80.2668 7.97199C80.1948 8.04399 80.0988 8.07999 79.9788 8.07999H77.7468V12.706C77.7468 13.27 77.8428 13.714 78.0348 14.038C78.2268 14.362 78.5688 14.524 79.0608 14.524H80.1588C80.2788 14.524 80.3748 14.566 80.4468 14.65C80.5308 14.722 80.5728 14.818 80.5728 14.938V15.586C80.5728 15.706 80.5308 15.808 80.4468 15.892C80.3748 15.964 80.2788 16 80.1588 16H78.9168Z" fill="white"/>
<path d="M86.488 16.18C85.576 16.18 84.814 16.006 84.202 15.658C83.59 15.31 83.1221 14.83 82.798 14.218C82.474 13.594 82.294 12.886 82.258 12.094C82.246 11.89 82.2401 11.632 82.2401 11.32C82.2401 10.996 82.246 10.738 82.258 10.546C82.294 9.74199 82.474 9.03399 82.798 8.42199C83.134 7.80999 83.6081 7.32999 84.2201 6.98199C84.8321 6.63399 85.588 6.45999 86.488 6.45999C87.3881 6.45999 88.1441 6.63399 88.7561 6.98199C89.368 7.32999 89.836 7.80999 90.16 8.42199C90.496 9.03399 90.6821 9.74199 90.7181 10.546C90.7301 10.738 90.736 10.996 90.736 11.32C90.736 11.632 90.7301 11.89 90.7181 12.094C90.6821 12.886 90.5021 13.594 90.1781 14.218C89.854 14.83 89.3861 15.31 88.7741 15.658C88.1621 16.006 87.4 16.18 86.488 16.18ZM86.488 14.794C87.232 14.794 87.826 14.56 88.2701 14.092C88.7141 13.612 88.9541 12.916 88.9901 12.004C89.0021 11.824 89.008 11.596 89.008 11.32C89.008 11.044 89.0021 10.816 88.9901 10.636C88.9541 9.72399 88.7141 9.03399 88.2701 8.56599C87.826 8.08599 87.232 7.84599 86.488 7.84599C85.744 7.84599 85.1441 8.08599 84.688 8.56599C84.244 9.03399 84.01 9.72399 83.986 10.636C83.974 10.816 83.968 11.044 83.968 11.32C83.968 11.596 83.974 11.824 83.986 12.004C84.01 12.916 84.244 13.612 84.688 14.092C85.1441 14.56 85.744 14.794 86.488 14.794Z" fill="white"/>
<path d="M93.764 16C93.644 16 93.542 15.964 93.458 15.892C93.386 15.808 93.35 15.706 93.35 15.586V7.07199C93.35 6.95199 93.386 6.84999 93.458 6.76599C93.542 6.68199 93.644 6.63999 93.764 6.63999H94.592C94.712 6.63999 94.814 6.68199 94.898 6.76599C94.982 6.84999 95.024 6.95199 95.024 7.07199V7.86399C95.264 7.45599 95.594 7.14999 96.014 6.94599C96.434 6.74199 96.938 6.63999 97.526 6.63999H98.246C98.366 6.63999 98.462 6.68199 98.534 6.76599C98.606 6.83799 98.642 6.93399 98.642 7.05399V7.79199C98.642 7.91199 98.606 8.00799 98.534 8.07999C98.462 8.15199 98.366 8.18799 98.246 8.18799H97.166C96.518 8.18799 96.008 8.37999 95.636 8.76399C95.264 9.13599 95.078 9.64599 95.078 10.294V15.586C95.078 15.706 95.036 15.808 94.952 15.892C94.868 15.964 94.766 16 94.646 16H93.764Z" fill="white"/>
<path d="M100.962 16C100.842 16 100.74 15.964 100.656 15.892C100.584 15.808 100.548 15.706 100.548 15.586V7.05399C100.548 6.93399 100.584 6.83799 100.656 6.76599C100.74 6.68199 100.842 6.63999 100.962 6.63999H101.826C101.946 6.63999 102.042 6.68199 102.114 6.76599C102.186 6.83799 102.222 6.93399 102.222 7.05399V15.586C102.222 15.706 102.186 15.808 102.114 15.892C102.042 15.964 101.946 16 101.826 16H100.962ZM100.818 4.89399C100.698 4.89399 100.596 4.85799 100.512 4.78599C100.44 4.70199 100.404 4.59999 100.404 4.47999V3.50799C100.404 3.38799 100.44 3.29199 100.512 3.21999C100.596 3.13599 100.698 3.09399 100.818 3.09399H101.952C102.072 3.09399 102.168 3.13599 102.24 3.21999C102.324 3.29199 102.366 3.38799 102.366 3.50799V4.47999C102.366 4.59999 102.324 4.70199 102.24 4.78599C102.168 4.85799 102.072 4.89399 101.952 4.89399H100.818Z" fill="white"/>
<path d="M107.877 16.18C107.277 16.18 106.731 16.06 106.239 15.82C105.747 15.58 105.351 15.256 105.051 14.848C104.751 14.44 104.601 13.978 104.601 13.462C104.601 12.634 104.937 11.974 105.609 11.482C106.281 10.99 107.157 10.666 108.237 10.51L110.919 10.132V9.60999C110.919 9.03399 110.751 8.58399 110.415 8.25999C110.091 7.93599 109.557 7.77399 108.813 7.77399C108.273 7.77399 107.835 7.88199 107.499 8.09799C107.175 8.31399 106.947 8.58999 106.815 8.92599C106.743 9.10599 106.617 9.19599 106.437 9.19599H105.627C105.495 9.19599 105.393 9.15999 105.321 9.08799C105.261 9.00399 105.231 8.90799 105.231 8.79999C105.231 8.61999 105.297 8.39799 105.429 8.13399C105.573 7.86999 105.789 7.61199 106.077 7.35999C106.365 7.10799 106.731 6.89799 107.175 6.72999C107.631 6.54999 108.183 6.45999 108.831 6.45999C109.551 6.45999 110.157 6.55599 110.649 6.74799C111.141 6.92799 111.525 7.17399 111.801 7.48599C112.089 7.79799 112.293 8.15199 112.413 8.54799C112.545 8.94399 112.611 9.34599 112.611 9.75399V15.586C112.611 15.706 112.569 15.808 112.485 15.892C112.413 15.964 112.317 16 112.197 16H111.369C111.237 16 111.135 15.964 111.063 15.892C110.991 15.808 110.955 15.706 110.955 15.586V14.812C110.799 15.028 110.589 15.244 110.325 15.46C110.061 15.664 109.731 15.838 109.335 15.982C108.939 16.114 108.453 16.18 107.877 16.18ZM108.255 14.83C108.747 14.83 109.197 14.728 109.605 14.524C110.013 14.308 110.331 13.978 110.559 13.534C110.799 13.09 110.919 12.532 110.919 11.86V11.356L108.831 11.662C107.979 11.782 107.337 11.986 106.905 12.274C106.473 12.55 106.257 12.904 106.257 13.336C106.257 13.672 106.353 13.954 106.545 14.182C106.749 14.398 107.001 14.56 107.301 14.668C107.613 14.776 107.931 14.83 108.255 14.83Z" fill="white"/>
<path d="M115.973 16C115.853 16 115.751 15.964 115.667 15.892C115.595 15.808 115.559 15.706 115.559 15.586V7.05399C115.559 6.93399 115.595 6.83799 115.667 6.76599C115.751 6.68199 115.853 6.63999 115.973 6.63999H116.819C116.939 6.63999 117.035 6.68199 117.107 6.76599C117.191 6.83799 117.233 6.93399 117.233 7.05399V7.84599C117.545 7.43799 117.935 7.10799 118.403 6.85599C118.883 6.59199 119.495 6.45999 120.239 6.45999C121.019 6.45999 121.679 6.63399 122.219 6.98199C122.771 7.31799 123.185 7.79199 123.461 8.40399C123.737 9.00399 123.875 9.70599 123.875 10.51V15.586C123.875 15.706 123.839 15.808 123.767 15.892C123.695 15.964 123.599 16 123.479 16H122.579C122.459 16 122.357 15.964 122.273 15.892C122.201 15.808 122.165 15.706 122.165 15.586V10.6C122.165 9.75999 121.961 9.10599 121.553 8.63799C121.145 8.15799 120.545 7.91799 119.753 7.91799C119.009 7.91799 118.409 8.15799 117.953 8.63799C117.509 9.10599 117.287 9.75999 117.287 10.6V15.586C117.287 15.706 117.245 15.808 117.161 15.892C117.089 15.964 116.993 16 116.873 16H115.973Z" fill="white"/>
<path d="M130.615 16.18C129.763 16.18 129.025 16.018 128.401 15.694C127.789 15.358 127.315 14.884 126.979 14.272C126.643 13.648 126.463 12.904 126.439 12.04C126.427 11.86 126.421 11.62 126.421 11.32C126.421 11.02 126.427 10.78 126.439 10.6C126.463 9.73599 126.643 8.99799 126.979 8.38599C127.315 7.76199 127.789 7.28799 128.401 6.96399C129.025 6.62799 129.763 6.45999 130.615 6.45999C131.311 6.45999 131.905 6.55599 132.397 6.74799C132.901 6.93999 133.315 7.18599 133.639 7.48599C133.963 7.78599 134.203 8.10999 134.359 8.45799C134.527 8.80599 134.617 9.13599 134.629 9.44799C134.641 9.56799 134.605 9.66399 134.521 9.73599C134.437 9.80799 134.335 9.84399 134.215 9.84399H133.351C133.231 9.84399 133.141 9.81999 133.081 9.77199C133.021 9.71199 132.961 9.61599 132.901 9.48399C132.685 8.89599 132.391 8.48199 132.019 8.24199C131.647 8.00199 131.185 7.88199 130.633 7.88199C129.913 7.88199 129.325 8.10399 128.869 8.54799C128.425 8.99199 128.185 9.70599 128.149 10.69C128.137 11.122 128.137 11.542 128.149 11.95C128.185 12.946 128.425 13.666 128.869 14.11C129.325 14.542 129.913 14.758 130.633 14.758C131.185 14.758 131.647 14.638 132.019 14.398C132.391 14.158 132.685 13.744 132.901 13.156C132.961 13.024 133.021 12.934 133.081 12.886C133.141 12.826 133.231 12.796 133.351 12.796H134.215C134.335 12.796 134.437 12.832 134.521 12.904C134.605 12.976 134.641 13.072 134.629 13.192C134.617 13.444 134.563 13.702 134.467 13.966C134.371 14.23 134.215 14.5 133.999 14.776C133.795 15.04 133.537 15.28 133.225 15.496C132.913 15.7 132.535 15.868 132.091 16C131.659 16.12 131.167 16.18 130.615 16.18Z" fill="white"/>
<path d="M140.853 16.18C139.617 16.18 138.633 15.802 137.901 15.046C137.169 14.278 136.767 13.234 136.695 11.914C136.683 11.758 136.677 11.56 136.677 11.32C136.677 11.068 136.683 10.864 136.695 10.708C136.743 9.85599 136.941 9.11199 137.289 8.47599C137.637 7.82799 138.111 7.32999 138.711 6.98199C139.323 6.63399 140.037 6.45999 140.853 6.45999C141.765 6.45999 142.527 6.65199 143.139 7.03599C143.763 7.41999 144.237 7.96599 144.561 8.67399C144.885 9.38199 145.047 10.21 145.047 11.158V11.464C145.047 11.596 145.005 11.698 144.921 11.77C144.849 11.842 144.753 11.878 144.633 11.878H138.405C138.405 11.89 138.405 11.914 138.405 11.95C138.405 11.986 138.405 12.016 138.405 12.04C138.429 12.532 138.537 12.994 138.729 13.426C138.921 13.846 139.197 14.188 139.557 14.452C139.917 14.716 140.349 14.848 140.853 14.848C141.285 14.848 141.645 14.782 141.933 14.65C142.221 14.518 142.455 14.374 142.635 14.218C142.815 14.05 142.935 13.924 142.995 13.84C143.103 13.684 143.187 13.594 143.247 13.57C143.307 13.534 143.403 13.516 143.535 13.516H144.399C144.519 13.516 144.615 13.552 144.687 13.624C144.771 13.684 144.807 13.774 144.795 13.894C144.783 14.074 144.687 14.296 144.507 14.56C144.327 14.812 144.069 15.064 143.733 15.316C143.397 15.568 142.989 15.778 142.509 15.946C142.029 16.102 141.477 16.18 140.853 16.18ZM138.405 10.636H143.337V10.582C143.337 10.042 143.235 9.56199 143.031 9.14199C142.839 8.72199 142.557 8.39199 142.185 8.15199C141.813 7.89999 141.369 7.77399 140.853 7.77399C140.337 7.77399 139.893 7.89999 139.521 8.15199C139.161 8.39199 138.885 8.72199 138.693 9.14199C138.501 9.56199 138.405 10.042 138.405 10.582V10.636Z" fill="white"/>
<defs>
<linearGradient id="paint0_linear_19_4954" x1="17.5005" y1="3.92962" x2="10.1873" y2="17.7819" gradientUnits="userSpaceOnUse">
<stop stop-color="#0274FB"/>
<stop offset="1" stop-color="#1BC1FC"/>
</linearGradient>
<linearGradient id="paint1_linear_19_4954" x1="17.6264" y1="4.33379" x2="8.9453" y2="12.1273" gradientUnits="userSpaceOnUse">
<stop stop-color="#0074FD"/>
<stop offset="1" stop-color="#8CC8FF"/>
</linearGradient>
</defs>
</svg>
