<svg width="28" height="28" viewBox="0 0 28 28" fill="none" xmlns="http://www.w3.org/2000/svg">
<rect x="0.341985" y="0.341985" width="26.6748" height="26.6748" rx="13.3374" fill="#20222C" stroke="url(#paint0_linear_19_4993)" stroke-width="0.68397"/>
<path d="M10.7518 18.625C10.6607 18.625 10.5831 18.5976 10.5193 18.5429C10.4646 18.4791 10.4372 18.4016 10.4372 18.3104V17.8726C10.4372 17.7906 10.46 17.6994 10.5056 17.599C10.5512 17.4987 10.6424 17.3893 10.7792 17.2707L13.6792 14.3707C14.1443 13.9786 14.5091 13.6457 14.7736 13.3721C15.0472 13.0894 15.2387 12.8204 15.3481 12.565C15.4667 12.3097 15.526 12.0452 15.526 11.7716C15.526 11.2518 15.38 10.8414 15.0882 10.5405C14.7964 10.2304 14.3632 10.0754 13.7887 10.0754C13.4239 10.0754 13.1093 10.1529 12.8448 10.3079C12.5803 10.4538 12.3706 10.659 12.2155 10.9235C12.0696 11.1788 11.9739 11.4707 11.9283 11.799C11.91 11.9175 11.8599 11.9996 11.7778 12.0452C11.7048 12.0908 11.6365 12.1136 11.5726 12.1136H10.8613C10.7792 12.1136 10.7108 12.0908 10.6561 12.0452C10.6014 11.9905 10.574 11.9267 10.574 11.8537C10.5831 11.5071 10.6561 11.1606 10.7929 10.8141C10.9297 10.4584 11.1303 10.1392 11.3948 9.8565C11.6684 9.57379 12.0012 9.3458 12.3934 9.17253C12.7946 8.99014 13.2597 8.89894 13.7887 8.89894C14.5091 8.89894 15.0973 9.03118 15.5533 9.29565C16.0184 9.551 16.3604 9.89298 16.5793 10.3216C16.7981 10.7502 16.9076 11.2199 16.9076 11.7306C16.9076 12.1318 16.8392 12.5012 16.7024 12.8386C16.5656 13.1669 16.365 13.4907 16.1005 13.8098C15.8451 14.1199 15.526 14.4391 15.1429 14.7674L12.5165 17.4349H16.7845C16.8848 17.4349 16.9623 17.4623 17.017 17.517C17.0809 17.5717 17.1128 17.6492 17.1128 17.7495V18.3104C17.1128 18.4016 17.0809 18.4791 17.017 18.5429C16.9623 18.5976 16.8848 18.625 16.7845 18.625H10.7518Z" fill="url(#paint1_linear_19_4993)"/>
<defs>
<linearGradient id="paint0_linear_19_4993" x1="0" y1="0" x2="27.9497" y2="0.617588" gradientUnits="userSpaceOnUse">
<stop stop-color="#5484FF"/>
<stop offset="1" stop-color="#0CC3CF"/>
</linearGradient>
<linearGradient id="paint1_linear_19_4993" x1="10.125" y1="5.625" x2="17.5983" y2="5.70047" gradientUnits="userSpaceOnUse">
<stop stop-color="#5484FF"/>
<stop offset="1" stop-color="#0CC3CF"/>
</linearGradient>
</defs>
</svg>
