<svg width="28" height="28" viewBox="0 0 28 28" fill="none" xmlns="http://www.w3.org/2000/svg">
<rect x="0.341985" y="0.341985" width="26.6748" height="26.6748" rx="13.3374" fill="#20222C" stroke="url(#paint0_linear_19_4995)" stroke-width="0.68397"/>
<path d="M14.6312 18.625C14.54 18.625 14.4625 18.5976 14.3986 18.5429C14.3439 18.4791 14.3166 18.4016 14.3166 18.3104V10.6499L12.0458 12.4009C11.9728 12.4556 11.8953 12.4784 11.8132 12.4693C11.7312 12.4601 11.6628 12.4191 11.608 12.3462L11.2524 11.8947C11.1977 11.8127 11.1749 11.7306 11.184 11.6485C11.2022 11.5664 11.2478 11.498 11.3208 11.4433L14.3029 9.14517C14.3667 9.09958 14.426 9.07222 14.4807 9.0631C14.5354 9.05398 14.5947 9.04942 14.6585 9.04942H15.3562C15.4474 9.04942 15.5204 9.08134 15.5751 9.14517C15.6298 9.19989 15.6571 9.27285 15.6571 9.36404V18.3104C15.6571 18.4016 15.6298 18.4791 15.5751 18.5429C15.5204 18.5976 15.4474 18.625 15.3562 18.625H14.6312Z" fill="url(#paint1_linear_19_4995)"/>
<defs>
<linearGradient id="paint0_linear_19_4995" x1="0" y1="0" x2="27.9497" y2="0.617588" gradientUnits="userSpaceOnUse">
<stop stop-color="#5484FF"/>
<stop offset="1" stop-color="#0CC3CF"/>
</linearGradient>
<linearGradient id="paint1_linear_19_4995" x1="10.125" y1="5.625" x2="17.5983" y2="5.70047" gradientUnits="userSpaceOnUse">
<stop stop-color="#5484FF"/>
<stop offset="1" stop-color="#0CC3CF"/>
</linearGradient>
</defs>
</svg>
