<svg width="28" height="28" viewBox="0 0 28 28" fill="none" xmlns="http://www.w3.org/2000/svg">
<rect x="0.341985" y="0.341985" width="26.6748" height="26.6748" rx="13.3374" fill="#20222C" stroke="url(#paint0_linear_19_4994)" stroke-width="0.68397"/>
<path d="M13.7499 18.7618C13.1753 18.7618 12.6738 18.6934 12.2451 18.5566C11.8165 18.4107 11.4563 18.2192 11.1645 17.9821C10.8726 17.745 10.6492 17.485 10.4942 17.2023C10.3483 16.9196 10.2708 16.6278 10.2616 16.3269C10.2616 16.2448 10.289 16.1809 10.3437 16.1353C10.3984 16.0898 10.4668 16.067 10.5489 16.067H11.2192C11.3013 16.067 11.3742 16.0852 11.4381 16.1217C11.5019 16.1581 11.5566 16.2357 11.6022 16.3542C11.6934 16.6825 11.8484 16.9379 12.0673 17.1203C12.2953 17.3027 12.5552 17.4303 12.847 17.5033C13.148 17.5671 13.4489 17.599 13.7499 17.599C14.3791 17.599 14.8898 17.4486 15.282 17.1476C15.6741 16.8467 15.8702 16.4044 15.8702 15.8207C15.8702 15.2279 15.6924 14.8039 15.3367 14.5485C14.981 14.2932 14.4886 14.1655 13.8593 14.1655H12.5598C12.4686 14.1655 12.3911 14.1382 12.3272 14.0834C12.2725 14.0287 12.2451 13.9512 12.2451 13.8509V13.4815C12.2451 13.3995 12.2588 13.3311 12.2862 13.2764C12.3227 13.2125 12.3591 13.1578 12.3956 13.1122L15.0494 10.2122H11.014C10.9228 10.2122 10.8453 10.1848 10.7815 10.1301C10.7267 10.0754 10.6994 9.99786 10.6994 9.89754V9.37772C10.6994 9.27741 10.7267 9.19989 10.7815 9.14517C10.8453 9.08134 10.9228 9.04942 11.014 9.04942H16.4721C16.5724 9.04942 16.6499 9.08134 16.7046 9.14517C16.7685 9.19989 16.8004 9.27741 16.8004 9.37772V9.87018C16.8004 9.93402 16.7822 9.9933 16.7457 10.048C16.7183 10.0936 16.6864 10.1392 16.6499 10.1848L14.0098 13.1259L14.2287 13.1396C14.8306 13.1578 15.3549 13.2672 15.8018 13.4679C16.2578 13.6685 16.6089 13.9694 16.8551 14.3707C17.1105 14.7628 17.2381 15.2599 17.2381 15.8618C17.2381 16.4728 17.0877 16.9972 16.7867 17.4349C16.4858 17.8635 16.0708 18.1918 15.5419 18.4198C15.0129 18.6478 14.4156 18.7618 13.7499 18.7618Z" fill="url(#paint1_linear_19_4994)"/>
<defs>
<linearGradient id="paint0_linear_19_4994" x1="0" y1="0" x2="27.9497" y2="0.617588" gradientUnits="userSpaceOnUse">
<stop stop-color="#5484FF"/>
<stop offset="1" stop-color="#0CC3CF"/>
</linearGradient>
<linearGradient id="paint1_linear_19_4994" x1="10.125" y1="5.625" x2="17.5983" y2="5.70047" gradientUnits="userSpaceOnUse">
<stop stop-color="#5484FF"/>
<stop offset="1" stop-color="#0CC3CF"/>
</linearGradient>
</defs>
</svg>
