<svg viewBox="0 0 14 10" xmlns="http://www.w3.org/2000/svg">
<path d="M7.34643 0.507159C7.61863 0.194937 8.09239 0.162487 8.40462 0.434681L12.9929 4.43468C13.1562 4.57711 13.25 4.78326 13.25 5.00001C13.25 5.21676 13.1562 5.42291 12.9929 5.56534L8.40462 9.56534C8.09239 9.83753 7.61863 9.80509 7.34643 9.49286C7.07424 9.18064 7.10669 8.70687 7.41891 8.43468L10.4984 5.75001H1.5C1.08579 5.75001 0.75 5.41422 0.75 5.00001C0.75 4.5858 1.08579 4.25001 1.5 4.25001H10.4984L7.41891 1.56534C7.10669 1.29315 7.07424 0.819382 7.34643 0.507159Z"/>
</svg>
